name analog
datacolumns 19
datarows 23
range 0.787 0.798
endheader
time	ground_force_vx	ground_force_vy	ground_force_vz	ground_force_px	ground_force_py	ground_force_pz	l_ground_force_vx	l_ground_force_vy	l_ground_force_vz	l_ground_force_px	l_ground_force_py	l_ground_force_pz	ground_torque_x	ground_torque_y	ground_torque_z	l_ground_torque_x	l_ground_torque_y	l_ground_torque_z
0.787	-0.0	-0.0	-0.0	0.2391622960567474	100.9442901611328	-411.2943420410156	0.6475608348846436	-102.1402359008789	-368.7839050292969	-0.0	-0.0	-0.0	-0.0	-0.0	-0.0	106535.4296875	15021.568359375	-7117.30029296875
0.7875	-0.0	-0.0	-0.0	0.1295636147260666	100.7030258178711	-412.3775329589844	0.3205870687961578	-101.48161315917967	-368.7594604492188	-0.0	-0.0	-0.0	-0.0	-0.0	-0.0	106758.4453125	15074.8984375	-7060.62646484375
0.788	-0.0	-0.0	-0.0	0.5409170389175415	100.45874786376952	-411.0790710449219	0.7924370169639587	-101.72061157226562	-369.1324768066406	-0.0	-0.0	-0.0	-0.0	-0.0	-0.0	106863.53125	14990.07421875	-7012.52685546875
0.7885	-0.0	-0.0	-0.0	0.2676315307617187	100.67733001708984	-409.37152099609375	0.6468080282211304	-101.89480590820312	-370.4498901367188	-0.0	-0.0	-0.0	-0.0	-0.0	-0.0	106838.0546875	15080.1220703125	-7053.8662109375
0.789	-0.0	-0.0	-0.0	0.6045142412185669	100.41537475585938	-411.3965759277344	0.7440503239631653	-101.6980438232422	-370.1793823242188	-0.0	-0.0	-0.0	-0.0	-0.0	-0.0	107080.3359375	15046.1201171875	-7087.216796875
0.7895	-0.0	-0.0	-0.0	0.6989098787307739	100.43009948730467	-409.2568054199219	0.3838207125663757	-101.62401580810548	-370.8774108886719	-0.0	-0.0	-0.0	-0.0	-0.0	-0.0	106974.265625	15030.07421875	-7008.09130859375
0.79	-0.0	-0.0	-0.0	0.6195425987243652	100.19744873046876	-410.139892578125	0.7295248508453369	-101.48161315917967	-370.5279541015625	-0.0	-0.0	-0.0	-0.0	-0.0	-0.0	107369.015625	15168.90625	-6966.64306640625
0.7905	-0.0	-0.0	-0.0	0.5747462511062622	100.07372283935548	-409.62939453125	0.6752139329910278	-101.4225845336914	-371.07037353515625	-0.0	-0.0	-0.0	-0.0	-0.0	-0.0	107204.7109375	14991.4296875	-7044.13134765625
0.791	-0.0	-0.0	-0.0	0.5352630615234375	100.07379150390624	-409.2757873535156	0.5519607663154602	-100.98604583740234	-370.2365417480469	-0.0	-0.0	-0.0	-0.0	-0.0	-0.0	107422.1328125	14819.505859375	-6943.5654296875
0.7915	-0.0	-0.0	-0.0	0.4764683544635772	99.87163543701172	-407.7248229980469	1.1139930486679075	-101.01030731201172	-370.8577575683594	-0.0	-0.0	-0.0	-0.0	-0.0	-0.0	107335.671875	14805.4140625	-6966.24951171875
0.792	-0.0	-0.0	-0.0	0.6091563701629639	99.71741485595705	-408.6898193359375	0.9953697323799132	-101.48161315917967	-370.509033203125	-0.0	-0.0	-0.0	-0.0	-0.0	-0.0	107497.7890625	14973.2109375	-6959.916015625
0.7925	-0.0	-0.0	-0.0	0.5895957350730896	99.23698425292967	-407.2324523925781	0.8524929285049438	-101.14340209960938	-372.2723083496094	-0.0	-0.0	-0.0	-0.0	-0.0	-0.0	107351.6953125	14649.279296875	-6971.52978515625
0.793	-0.0	-0.0	-0.0	0.5895593166351318	98.86498260498048	-408.0610656738281	1.1878913640975952	-100.98619079589844	-371.3281555175781	-0.0	-0.0	-0.0	-0.0	-0.0	-0.0	107488.828125	14923.021484375	-6846.1416015625
0.7935	-0.0	-0.0	-0.0	0.6437826752662659	99.1166763305664	-405.23577880859375	0.9758186340332032	-100.73654174804688	-371.5734558105469	-0.0	-0.0	-0.0	-0.0	-0.0	-0.0	107569.96875	14855.845703125	-6852.75537109375
0.794	-0.0	-0.0	-0.0	0.8378801941871643	98.93475341796876	-405.8799133300781	0.9758186340332032	-101.3625259399414	-371.6339721679688	-0.0	-0.0	-0.0	-0.0	-0.0	-0.0	107722.1875	14714.1787109375	-6805.23193359375
0.7945	-0.0	-0.0	-0.0	0.5894514918327332	99.2212905883789	-406.6487731933594	1.1029176712036133	-100.79415893554688	-372.81842041015625	-0.0	-0.0	-0.0	-0.0	-0.0	-0.0	107769.125	15002.1865234375	-6783.013671875
0.795	-0.0	-0.0	-0.0	1.1788301467895508	98.55915069580078	-406.6613159179688	1.2767455577850342	-100.71793365478516	-373.4688415527344	-0.0	-0.0	-0.0	-0.0	-0.0	-0.0	107819.7265625	14779.2275390625	-6806.1044921875
0.7955	-0.0	-0.0	-0.0	1.162688970565796	98.68341064453124	-406.3594970703125	1.311610221862793	-101.21665954589844	-372.2085266113281	-0.0	-0.0	-0.0	-0.0	-0.0	-0.0	107964.1875	14780.7890625	-6799.82373046875
0.796	-0.0	-0.0	-0.0	0.9082851409912108	98.41889190673828	-405.3114929199219	1.546041488647461	-100.83173370361328	-372.8192443847656	-0.0	-0.0	-0.0	-0.0	-0.0	-0.0	107889.125	14781.4150390625	-6858.8994140625
0.7965	-0.0	-0.0	-0.0	0.9624383449554444	98.0623016357422	-405.9532470703125	1.2230443954467771	-101.11241149902344	-373.6666564941406	-0.0	-0.0	-0.0	-0.0	-0.0	-0.0	107971.3046875	14620.7197265625	-6818.8515625
0.797	-0.0	-0.0	-0.0	1.0869226455688477	97.97310638427734	-405.0878601074219	1.368332862854004	-100.84461212158205	-372.7564392089844	-0.0	-0.0	-0.0	-0.0	-0.0	-0.0	108021.9296875	14783.9228515625	-6794.34130859375
0.7975	-0.0	-0.0	-0.0	1.319423794746399	98.25691223144533	-405.3675842285156	1.4006085395812988	-101.07737731933594	-372.6824340820313	-0.0	-0.0	-0.0	-0.0	-0.0	-0.0	108020.828125	14761.033203125	-6722.47607421875
0.798	-0.0	-0.0	-0.0	1.5352396965026855	98.11598205566406	-405.80377197265625	1.5244014263153076	-100.94932556152344	-373.4544372558594	-0.0	-0.0	-0.0	-0.0	-0.0	-0.0	108056.140625	14559.9482421875	-6841.03564453125
